<svg width="29" height="29" viewBox="0 0 29 29" fill="none" xmlns="http://www.w3.org/2000/svg">
<g id="bi:mic-fill">
<g id="Group">
<path id="Vector" d="M9.0625 5.4375C9.0625 3.99539 9.63538 2.61234 10.6551 1.59261C11.6748 0.572878 13.0579 0 14.5 0C15.9421 0 17.3252 0.572878 18.3449 1.59261C19.3646 2.61234 19.9375 3.99539 19.9375 5.4375V14.5C19.9375 15.9421 19.3646 17.3252 18.3449 18.3449C17.3252 19.3646 15.9421 19.9375 14.5 19.9375C13.0579 19.9375 11.6748 19.3646 10.6551 18.3449C9.63538 17.3252 9.0625 15.9421 9.0625 14.5V5.4375Z" fill="#00EB6C"/>
<path id="Vector_2" d="M6.34375 11.7812C6.5841 11.7812 6.81461 11.8767 6.98457 12.0467C7.15452 12.2166 7.25 12.4471 7.25 12.6875V14.5C7.25 16.4228 8.01384 18.2669 9.37348 19.6265C10.7331 20.9862 12.5772 21.75 14.5 21.75C16.4228 21.75 18.2669 20.9862 19.6265 19.6265C20.9862 18.2669 21.75 16.4228 21.75 14.5V12.6875C21.75 12.4471 21.8455 12.2166 22.0154 12.0467C22.1854 11.8767 22.4159 11.7812 22.6562 11.7812C22.8966 11.7812 23.1271 11.8767 23.2971 12.0467C23.467 12.2166 23.5625 12.4471 23.5625 12.6875V14.5C23.5625 16.7466 22.7281 18.9132 21.221 20.5794C19.7139 22.2455 17.6416 23.2925 15.4062 23.5172V27.1875H20.8438C21.0841 27.1875 21.3146 27.283 21.4846 27.4529C21.6545 27.6229 21.75 27.8534 21.75 28.0938C21.75 28.3341 21.6545 28.5646 21.4846 28.7346C21.3146 28.9045 21.0841 29 20.8438 29H8.15625C7.9159 29 7.68539 28.9045 7.51543 28.7346C7.34548 28.5646 7.25 28.3341 7.25 28.0938C7.25 27.8534 7.34548 27.6229 7.51543 27.4529C7.68539 27.283 7.9159 27.1875 8.15625 27.1875H13.5938V23.5172C11.3584 23.2925 9.28612 22.2455 7.77903 20.5794C6.27195 18.9132 5.43747 16.7466 5.4375 14.5V12.6875C5.4375 12.4471 5.53298 12.2166 5.70293 12.0467C5.87289 11.8767 6.1034 11.7812 6.34375 11.7812Z" fill="#00EB6C"/>
</g>
</g>
</svg>
