<svg width="49" height="50" viewBox="0 0 49 50" fill="none" xmlns="http://www.w3.org/2000/svg">
<rect width="49" height="50" rx="5" fill="#00EB6C"/>
<path d="M24.5 13.7812C22.1823 13.7812 19.9166 14.4685 17.9894 15.7562C16.0623 17.0439 14.5603 18.8741 13.6733 21.0154C12.7863 23.1567 12.5543 25.513 13.0064 27.7862C13.4586 30.0594 14.5747 32.1475 16.2136 33.7864C17.8525 35.4253 19.9406 36.5414 22.2138 36.9936C24.487 37.4457 26.8433 37.2137 28.9846 36.3267C31.1259 35.4397 32.9561 33.9377 34.2438 32.0106C35.5315 30.0835 36.2188 27.8177 36.2188 25.5C36.2188 22.392 34.9841 19.4113 32.7864 17.2136C30.5887 15.0159 27.608 13.7813 24.5 13.7812ZM31.5313 29.0156L27.625 26.6719V28.8984C27.625 29.0331 27.5715 29.1623 27.4763 29.2575C27.381 29.3527 27.2519 29.4062 27.1172 29.4062H18.7578C18.6231 29.4062 18.494 29.3527 18.3987 29.2575C18.3035 29.1623 18.25 29.0331 18.25 28.8984V22.1016C18.25 22.0349 18.2631 21.9688 18.2887 21.9072C18.3142 21.8456 18.3516 21.7896 18.3987 21.7425C18.4459 21.6953 18.5019 21.6579 18.5635 21.6324C18.6251 21.6069 18.6911 21.5938 18.7578 21.5938H27.1172C27.2519 21.5938 27.381 21.6473 27.4763 21.7425C27.5715 21.8377 27.625 21.9669 27.625 22.1016V24.3281L31.5313 21.9844V29.0156Z" fill="white"/>
</svg>
