<svg width="49" height="50" viewBox="0 0 49 50" fill="none" xmlns="http://www.w3.org/2000/svg">
<g id="Group 17775">
<rect id="Rectangle 8249" width="49" height="50" rx="5" fill="#00EB6C"/>
<path id="layer2" d="M21.377 14.5664H37.002V19.2539H21.377V14.5664ZM21.377 31.7539H37.002V36.4414H21.377V31.7539ZM21.377 23.1555H37.002V27.843H21.377V23.1555Z" fill="white"/>
<path id="layer1" d="M15.123 20.0312C16.8489 20.0312 18.248 18.6321 18.248 16.9062C18.248 15.1804 16.8489 13.7812 15.123 13.7812C13.3972 13.7812 11.998 15.1804 11.998 16.9062C11.998 18.6321 13.3972 20.0312 15.123 20.0312Z" fill="white"/>
<path id="layer1_2" d="M15.123 37.2188C16.8489 37.2188 18.248 35.8196 18.248 34.0938C18.248 32.3679 16.8489 30.9688 15.123 30.9688C13.3972 30.9688 11.998 32.3679 11.998 34.0938C11.998 35.8196 13.3972 37.2188 15.123 37.2188Z" fill="white"/>
<path id="layer1_3" d="M15.123 28.625C16.8489 28.625 18.248 27.2259 18.248 25.5C18.248 23.7741 16.8489 22.375 15.123 22.375C13.3972 22.375 11.998 23.7741 11.998 25.5C11.998 27.2259 13.3972 28.625 15.123 28.625Z" fill="white"/>
</g>
</svg>
