<svg width="49" height="50" viewBox="0 0 49 50" fill="none" xmlns="http://www.w3.org/2000/svg">
<g id="Group 17776">
<rect id="Rectangle 8248" width="49" height="50" rx="5" fill="#00EB6C"/>
<path id="layer2" d="M36.375 30.4219L29.5781 23.625L22.7813 30.4219C22.6917 30.489 22.6176 30.5746 22.5641 30.6729C22.5105 30.7712 22.4787 30.8798 22.4707 30.9915C22.4628 31.1031 22.4789 31.2152 22.5181 31.3201C22.5572 31.4249 22.6184 31.5202 22.6976 31.5993C22.7767 31.6784 22.872 31.7397 22.9768 31.7788C23.0817 31.8179 23.1937 31.8341 23.3054 31.8262C23.417 31.8182 23.5257 31.7864 23.6239 31.7328C23.7222 31.6792 23.8078 31.6052 23.875 31.5156L24.8906 30.5V37.2188H28.0156V32.5312H31.1406V37.2188H34.2656V30.5L35.2812 31.5156C35.3484 31.6052 35.434 31.6792 35.5323 31.7328C35.6306 31.7864 35.7392 31.8182 35.8509 31.8262C35.9625 31.8341 36.0746 31.8179 36.1794 31.7788C36.2843 31.7397 36.3795 31.6784 36.4587 31.5993C36.5378 31.5202 36.599 31.4249 36.6382 31.3201C36.6773 31.2152 36.6935 31.1031 36.6855 30.9915C36.6776 30.8798 36.6458 30.7712 36.5922 30.6729C36.5386 30.5746 36.4645 30.489 36.375 30.4219Z" fill="white"/>
<path id="layer1" d="M27.2344 13.7812H20.9844V20.0312H27.2344V13.7812ZM25.6719 17.6875C25.6719 17.8947 25.5896 18.0934 25.4431 18.2399C25.2965 18.3864 25.0978 18.4688 24.8906 18.4688C24.6834 18.4688 24.4847 18.3864 24.3382 18.2399C24.1917 18.0934 24.1094 17.8947 24.1094 17.6875V16.125C24.1094 15.9178 24.1917 15.7191 24.3382 15.5726C24.4847 15.4261 24.6834 15.3438 24.8906 15.3438C25.0978 15.3438 25.2965 15.4261 25.4431 15.5726C25.5896 15.7191 25.6719 15.9178 25.6719 16.125V17.6875Z" fill="white"/>
<path id="layer1_2" d="M28.4844 22.4922C28.6298 22.3446 28.8031 22.2273 28.9942 22.1473C29.1853 22.0673 29.3905 22.026 29.5977 22.026C29.8049 22.026 30.01 22.0673 30.2011 22.1473C30.3922 22.2273 30.5655 22.3446 30.7109 22.4922L31.9219 23.7422V16.3984L29.3047 13.7812H28.7969V20.1484C28.7969 20.5318 28.6446 20.8994 28.3736 21.1704C28.1025 21.4415 27.7349 21.5938 27.3516 21.5938H20.8672C20.4839 21.5938 20.1162 21.4415 19.8452 21.1704C19.5741 20.8994 19.4219 20.5318 19.4219 20.1484V13.7812H12.3906V33.3125H14.7344V23.1562H27.8203L28.4844 22.4922Z" fill="white"/>
<path id="layer1_3" d="M21.6875 32.6484C21.469 32.4307 21.2956 32.172 21.1773 31.8871C21.059 31.6022 20.9982 31.2968 20.9982 30.9883C20.9982 30.6798 21.059 30.3744 21.1773 30.0895C21.2956 29.8046 21.469 29.5459 21.6875 29.3281L26.2578 24.7188H16.2969V33.3125H23.25C22.6645 33.2942 22.107 33.0573 21.6875 32.6484Z" fill="white"/>
</g>
</svg>
