<svg width="16" height="17" viewBox="0 0 16 17" fill="none" xmlns="http://www.w3.org/2000/svg">
<path fill-rule="evenodd" clip-rule="evenodd" d="M5.33333 5.14516L5.32885 5.06992C5.29034 4.74906 5.00856 4.5 4.66667 4.5L4.58892 4.50434C4.25736 4.54161 4 4.8143 4 5.14516V11.8548L4.00449 11.9301C4.043 12.2509 4.32478 12.5 4.66667 12.5L4.74441 12.4957C5.07597 12.4584 5.33333 12.1857 5.33333 11.8548L5.33333 5.14516ZM6.66667 7.98163C6.33673 8.2481 6.33673 8.7519 6.66667 9.01837C6.66994 9.02102 6.67325 9.02364 6.67659 9.02623L10.924 12.3298C11.3619 12.6704 12 12.3583 12 11.8036L12 5.19643C12 4.64166 11.3619 4.3296 10.924 4.67019L6.67659 7.97377C6.67325 7.97636 6.66994 7.97898 6.66667 7.98163Z" fill="#191D23"/>
</svg>
