<svg width="49" height="50" viewBox="0 0 49 50" fill="none" xmlns="http://www.w3.org/2000/svg">
<g id="Group 17774">
<rect id="Rectangle 8250" width="49" height="50" rx="5" fill="#00EB6C"/>
<path id="layer3" d="M36.2187 26.2812L32.2472 22.0742L28.798 26.3242L30.6183 27.8016L31.3433 26.9078C31.1239 28.783 30.2618 30.5244 28.9036 31.8359C27.5455 33.1474 25.7751 33.9481 23.8933 34.102L24.0722 36.4391C26.5352 36.2385 28.8493 35.1781 30.6092 33.4434C32.3692 31.7087 33.463 29.4103 33.6992 26.9504L34.5949 27.877L36.2187 26.2812Z" fill="white"/>
<path id="layer2" d="M17.5026 31.0312L17.8678 32.073C16.5039 30.866 15.5846 29.2359 15.2573 27.4442C14.93 25.6525 15.2137 23.8028 16.0628 22.1914L13.9913 21.0957C12.826 23.3047 12.4884 25.8574 13.0393 28.2934C13.5902 30.7294 14.9935 32.8883 16.996 34.3809L15.4952 34.9023L15.9065 37.2188L21.5835 35.5891L19.7143 30.2559L17.5026 31.0312Z" fill="white"/>
<path id="layer1" d="M29.6779 20.8992L31.5236 19.4141C30.5483 18.1506 29.2969 17.1271 27.8651 16.4217C26.4333 15.7164 24.8592 15.3479 23.2631 15.3445H23.2619C22.0868 15.3699 20.9242 15.5918 19.8225 16.0012L20.4123 14.5672L18.2498 13.7617L15.9268 19.5027L21.592 20.6863L22.0689 18.3941L20.9998 18.0914C21.7311 17.8518 22.4925 17.7161 23.2615 17.6883H23.2623C24.5054 17.7004 25.7293 17.996 26.841 18.5524C27.9527 19.1088 28.9228 19.9114 29.6775 20.8992H29.6779Z" fill="white"/>
</g>
</svg>
