<svg width="24" height="25" viewBox="0 0 24 25" fill="none" xmlns="http://www.w3.org/2000/svg">
<path fill-rule="evenodd" clip-rule="evenodd" d="M5 7.5C5 6.39543 5.89543 5.5 7 5.5H9C10.1046 5.5 11 6.39543 11 7.5V17.5C11 18.6046 10.1046 19.5 9 19.5H7C5.89543 19.5 5 18.6046 5 17.5V7.5Z" fill="#191D23"/>
<path fill-rule="evenodd" clip-rule="evenodd" d="M13 7.5C13 6.39543 13.8954 5.5 15 5.5H17C18.1046 5.5 19 6.39543 19 7.5V17.5C19 18.6046 18.1046 19.5 17 19.5H15C13.8954 19.5 13 18.6046 13 17.5V7.5Z" fill="#191D23"/>
</svg>
