<svg width="16" height="17" viewBox="0 0 16 17" fill="none" xmlns="http://www.w3.org/2000/svg">
<g id="Icons">
<path id="Shape" fill-rule="evenodd" clip-rule="evenodd" d="M10.6453 2.89527C10.8856 2.65495 11.2637 2.63647 11.5253 2.83982L13.4269 4.74144C13.6133 4.98117 13.6133 5.3189 13.4269 5.55864L11.5253 7.46026C11.2855 7.64666 10.8743 7.63389 10.6453 7.4048C10.4162 7.17571 10.4034 6.76453 10.5898 6.52479L11.2711 5.83495C10.4679 5.84792 9.53718 6.4093 8.47884 7.5191L8.26898 7.748L7.99608 8.06062C7.78075 8.31141 7.78169 8.68212 7.99829 8.93181L8.47203 9.47127C9.54376 10.5941 10.4884 11.1592 11.3059 11.1665L10.5898 10.4419C10.3864 10.1804 10.4049 9.80226 10.6453 9.56194C10.8856 9.32162 11.2637 9.30313 11.5253 9.50648L13.4269 11.4081C13.6133 11.6478 13.6133 11.9856 13.4269 12.2253L11.5253 14.1269C11.2855 14.3133 10.8749 14.3011 10.6453 14.0715C10.4156 13.8418 10.4034 13.4312 10.5898 13.1915L11.2746 12.4987L11.1582 12.4973C9.29613 12.4439 7.62439 11.3421 6.8519 9.74772C6.05522 11.4081 4.59937 12.501 3.13322 12.501C2.76503 12.501 2.46655 12.2025 2.46655 11.8343C2.46655 11.4661 2.76503 11.1677 3.13322 11.1677C4.10492 11.1677 4.74474 10.5965 5.75857 8.98161L5.95195 8.66766C6.01566 8.56424 6.01806 8.43436 5.95823 8.32865L5.75857 7.97592C4.71911 6.31477 4.07022 5.83335 3.13322 5.83335C2.76503 5.83335 2.46655 5.53487 2.46655 5.16668C2.46655 4.79849 2.76503 4.50001 3.13322 4.50001C4.70424 4.50001 5.6217 5.30651 6.85218 7.2539C8.12801 5.40476 9.29467 4.55819 11.1547 4.5038L11.3079 4.50135L10.5898 3.77528C10.3864 3.51375 10.4049 3.1356 10.6453 2.89527Z" fill="#191D23"/>
</g>
</svg>
