<svg width="16" height="17" viewBox="0 0 16 17" fill="none" xmlns="http://www.w3.org/2000/svg">
<path fill-rule="evenodd" clip-rule="evenodd" d="M12.9743 6.85648L13.0366 6.91194L14.8062 8.6953L14.8613 8.7581C15.0462 8.99784 15.0462 9.33557 14.8613 9.5753L14.8062 9.63811L14.7439 9.69356C14.506 9.87997 14.1709 9.87997 13.933 9.69356L13.8707 9.63811L13.2546 9.0167C13.1818 9.77956 12.948 10.5101 12.5707 11.1672C11.6314 12.8036 9.89781 13.8334 7.98685 13.8334C6.34007 13.8334 4.81697 13.0696 3.82026 11.7888C3.5948 11.4991 3.64508 11.0801 3.93258 10.8528C4.22008 10.6256 4.63592 10.6763 4.86138 10.966C5.6099 11.9279 6.75089 12.5 7.98685 12.5C9.42067 12.5 10.7203 11.728 11.4255 10.4996C11.6943 10.0313 11.8657 9.51388 11.9288 8.97203L11.2669 9.63811L11.2046 9.69356C10.9451 9.89691 10.5698 9.87843 10.3314 9.63811C10.0929 9.39778 10.0745 9.01963 10.2763 8.7581L10.3314 8.6953L12.101 6.91194L12.1633 6.85648C12.4012 6.67008 12.7364 6.67008 12.9743 6.85648ZM8.04545 3.16669C9.69223 3.16669 11.2153 3.93042 12.212 5.2112C12.4375 5.50092 12.3872 5.91998 12.0997 6.14719C11.8122 6.3744 11.3964 6.32372 11.1709 6.034C10.4224 5.07215 9.28141 4.50002 8.04545 4.50002C6.61163 4.50002 5.31199 5.27202 4.60682 6.50045C4.43916 6.79252 4.30938 7.1037 4.22014 7.42801L4.73308 6.91194L4.7954 6.85648C5.05492 6.65313 5.43017 6.67162 5.66865 6.91194C5.90712 7.15226 5.92547 7.53042 5.72368 7.79194L5.66865 7.85475L3.89899 9.63811L3.83667 9.69356C3.59877 9.87997 3.26364 9.87997 3.02574 9.69356L2.96342 9.63811L1.19376 7.85475L1.13873 7.79194C0.953757 7.55221 0.953757 7.21448 1.13873 6.97474L1.19376 6.91194L1.25608 6.85648C1.49398 6.67008 1.82911 6.67008 2.06701 6.85648L2.12933 6.91194L2.82587 7.61413C2.93032 6.98496 3.14562 6.38316 3.46156 5.83279C4.40088 4.19648 6.13449 3.16669 8.04545 3.16669Z" fill="#191D23"/>
</svg>
