<svg width="76" height="15" viewBox="0 0 76 15" fill="none" xmlns="http://www.w3.org/2000/svg">
<path d="M8.694 3.596C8.214 3.344 7.71 3.134 7.182 2.966C6.666 2.786 6.168 2.696 5.688 2.696C5.04 2.696 4.53 2.84 4.158 3.128C3.786 3.404 3.6 3.8 3.6 4.316C3.6 4.664 3.726 4.97 3.978 5.234C4.242 5.498 4.578 5.732 4.986 5.936C5.394 6.14 5.826 6.326 6.282 6.494C6.81 6.686 7.32 6.932 7.812 7.232C8.316 7.52 8.724 7.916 9.036 8.42C9.36 8.912 9.522 9.572 9.522 10.4C9.522 11.084 9.348 11.714 9 12.29C8.652 12.854 8.154 13.304 7.506 13.64C6.858 13.976 6.066 14.144 5.13 14.144C4.326 14.144 3.54 14.018 2.772 13.766C2.016 13.502 1.338 13.166 0.738 12.758L1.692 11.084C2.124 11.408 2.64 11.69 3.24 11.93C3.852 12.158 4.416 12.272 4.932 12.272C5.316 12.272 5.688 12.212 6.048 12.092C6.408 11.972 6.708 11.774 6.948 11.498C7.188 11.222 7.308 10.856 7.308 10.4C7.308 10.04 7.2 9.728 6.984 9.464C6.78 9.2 6.504 8.972 6.156 8.78C5.82 8.588 5.454 8.414 5.058 8.258C4.65 8.102 4.23 7.928 3.798 7.736C3.378 7.544 2.988 7.31 2.628 7.034C2.268 6.746 1.974 6.398 1.746 5.99C1.518 5.57 1.404 5.066 1.404 4.478C1.404 3.746 1.572 3.116 1.908 2.588C2.244 2.048 2.712 1.628 3.312 1.328C3.912 1.016 4.596 0.842 5.364 0.805999C6.3 0.805999 7.092 0.919999 7.74 1.148C8.4 1.376 8.982 1.646 9.486 1.958L8.694 3.596ZM15.0666 14.198C14.3466 14.198 13.6926 14.048 13.1046 13.748C12.5286 13.448 12.0666 13.004 11.7186 12.416C11.3826 11.816 11.2146 11.072 11.2146 10.184C11.2146 9.332 11.3946 8.594 11.7546 7.97C12.1146 7.346 12.5826 6.866 13.1586 6.53C13.7466 6.194 14.3766 6.026 15.0486 6.026C15.7926 6.026 16.3866 6.17 16.8306 6.458C17.2746 6.746 17.6286 7.082 17.8926 7.466L17.7846 7.754L17.9826 6.368H19.8726V14H17.8206V12.164L18.0006 12.632C17.9646 12.704 17.8746 12.824 17.7306 12.992C17.5866 13.148 17.3886 13.322 17.1366 13.514C16.8966 13.694 16.6026 13.856 16.2546 14C15.9066 14.132 15.5106 14.198 15.0666 14.198ZM15.6246 12.506C16.1766 12.506 16.6386 12.368 17.0106 12.092C17.3946 11.816 17.6646 11.426 17.8206 10.922V9.248C17.6766 8.792 17.4006 8.42 16.9926 8.132C16.5846 7.844 16.1046 7.7 15.5526 7.7C15.1446 7.7 14.7666 7.802 14.4186 8.006C14.0826 8.198 13.8126 8.474 13.6086 8.834C13.4046 9.194 13.3026 9.608 13.3026 10.076C13.3026 10.544 13.4106 10.964 13.6266 11.336C13.8426 11.696 14.1246 11.984 14.4726 12.2C14.8326 12.404 15.2166 12.506 15.6246 12.506ZM25.914 14.198L21.522 6.368H23.952L26.706 12.074L25.446 12.02L27.912 6.368H30.198L26.004 14.198H25.914ZM35.2564 14.198C34.3564 14.198 33.5884 14.024 32.9524 13.676C32.3164 13.328 31.8244 12.848 31.4764 12.236C31.1404 11.612 30.9724 10.904 30.9724 10.112C30.9724 9.356 31.1644 8.672 31.5484 8.06C31.9444 7.436 32.4664 6.944 33.1144 6.584C33.7744 6.212 34.5004 6.026 35.2924 6.026C36.3484 6.026 37.2184 6.332 37.9024 6.944C38.5864 7.544 39.0424 8.402 39.2704 9.518L33.1324 11.588L32.6644 10.436L37.4164 8.744L37.0024 8.978C36.8704 8.618 36.6604 8.306 36.3724 8.042C36.0844 7.778 35.6764 7.646 35.1484 7.646C34.5124 7.646 33.9964 7.868 33.6004 8.312C33.2044 8.744 33.0064 9.308 33.0064 10.004C33.0064 10.76 33.2224 11.36 33.6544 11.804C34.0984 12.236 34.6444 12.452 35.2924 12.452C35.6044 12.452 35.9044 12.398 36.1924 12.29C36.4804 12.182 36.7504 12.038 37.0024 11.858L37.9384 13.37C37.5424 13.622 37.1044 13.826 36.6244 13.982C36.1564 14.126 35.7004 14.198 35.2564 14.198ZM43.1595 14C43.9035 13.244 44.6235 12.512 45.3195 11.804C46.0155 11.096 46.6395 10.412 47.1915 9.752C47.7435 9.092 48.1755 8.45 48.4875 7.826C48.8115 7.19 48.9735 6.584 48.9735 6.008C48.9735 5.564 48.8775 5.198 48.6855 4.91C48.5055 4.61 48.2595 4.388 47.9475 4.244C47.6355 4.1 47.2935 4.028 46.9215 4.028C46.4655 4.028 46.0935 4.118 45.8055 4.298C45.5175 4.478 45.3015 4.7 45.1575 4.964C45.0135 5.228 44.9415 5.486 44.9415 5.738C44.9415 6.134 45.0015 6.488 45.1215 6.8C45.2535 7.1 45.4275 7.364 45.6435 7.592L44.3295 8.78C44.0295 8.612 43.7655 8.348 43.5375 7.988C43.3215 7.628 43.1535 7.25 43.0335 6.854C42.9255 6.446 42.8715 6.098 42.8715 5.81C42.8715 5.15 43.0395 4.532 43.3755 3.956C43.7235 3.368 44.2215 2.894 44.8695 2.534C45.5295 2.162 46.3335 1.976 47.2815 1.976C48.0735 1.976 48.7575 2.156 49.3335 2.516C49.9095 2.876 50.3595 3.35 50.6835 3.938C51.0195 4.514 51.1875 5.144 51.1875 5.828C51.1875 6.596 51.0015 7.34 50.6295 8.06C50.2695 8.768 49.8135 9.47 49.2615 10.166C48.7095 10.85 48.1335 11.54 47.5335 12.236L46.5795 11.948H51.4755V14H43.1595ZM56.6689 14.144C56.0089 14.144 55.3669 14.024 54.7429 13.784C54.1189 13.532 53.6269 13.226 53.2669 12.866L54.3829 11.192C54.6109 11.456 54.9229 11.678 55.3189 11.858C55.7269 12.026 56.1229 12.11 56.5069 12.11C57.0709 12.11 57.5389 11.93 57.9109 11.57C58.2829 11.21 58.4689 10.724 58.4689 10.112C58.4689 9.464 58.2829 8.936 57.9109 8.528C57.5509 8.108 57.0289 7.898 56.3449 7.898C55.9489 7.898 55.5769 7.952 55.2289 8.06C54.8809 8.168 54.4969 8.336 54.0769 8.564H54.0589V2.12H59.8549V4.172H55.8949V6.71L55.6249 6.26C55.8169 6.212 56.0149 6.176 56.2189 6.152C56.4349 6.116 56.6449 6.098 56.8489 6.098C57.6769 6.098 58.3729 6.284 58.9369 6.656C59.5009 7.016 59.9269 7.496 60.2149 8.096C60.5149 8.684 60.6649 9.338 60.6649 10.058C60.6649 10.826 60.4909 11.522 60.1429 12.146C59.7949 12.758 59.3149 13.244 58.7029 13.604C58.1029 13.964 57.4249 14.144 56.6689 14.144ZM65.2996 8.978C64.6996 8.978 64.1956 8.84 63.7876 8.564C63.3916 8.288 63.0916 7.91 62.8876 7.43C62.6836 6.938 62.5816 6.38 62.5816 5.756C62.5816 5.132 62.6836 4.58 62.8876 4.1C63.0916 3.62 63.3916 3.242 63.7876 2.966C64.1956 2.678 64.6996 2.534 65.2996 2.534C65.8996 2.534 66.3976 2.678 66.7936 2.966C67.2016 3.242 67.5076 3.62 67.7116 4.1C67.9156 4.58 68.0176 5.132 68.0176 5.756C68.0176 6.38 67.9096 6.938 67.6936 7.43C67.4896 7.91 67.1896 8.288 66.7936 8.564C66.3976 8.84 65.8996 8.978 65.2996 8.978ZM64.3816 5.756C64.3816 6.296 64.4536 6.728 64.5976 7.052C64.7416 7.376 64.9756 7.538 65.2996 7.538C65.6236 7.538 65.8516 7.376 65.9836 7.052C66.1276 6.728 66.1996 6.296 66.1996 5.756C66.1996 5.156 66.1276 4.718 65.9836 4.442C65.8516 4.154 65.6236 4.01 65.2996 4.01C64.9756 4.01 64.7416 4.148 64.5976 4.424C64.4536 4.7 64.3816 5.144 64.3816 5.756ZM72.3916 14.378C71.8036 14.378 71.3056 14.24 70.8976 13.964C70.4896 13.688 70.1836 13.31 69.9796 12.83C69.7876 12.338 69.6916 11.78 69.6916 11.156C69.6916 10.532 69.7876 9.98 69.9796 9.5C70.1836 9.02 70.4896 8.642 70.8976 8.366C71.3056 8.078 71.8036 7.934 72.3916 7.934C72.9916 7.934 73.4896 8.078 73.8856 8.366C74.2936 8.642 74.5996 9.02 74.8036 9.5C75.0076 9.98 75.1096 10.532 75.1096 11.156C75.1096 11.78 75.0016 12.338 74.7856 12.83C74.5816 13.31 74.2816 13.688 73.8856 13.964C73.4896 14.24 72.9916 14.378 72.3916 14.378ZM71.4736 11.156C71.4736 11.696 71.5456 12.128 71.6896 12.452C71.8456 12.776 72.0796 12.938 72.3916 12.938C72.7156 12.938 72.9436 12.776 73.0756 12.452C73.2196 12.128 73.2916 11.696 73.2916 11.156C73.2916 10.568 73.2196 10.13 73.0756 9.842C72.9436 9.554 72.7156 9.41 72.3916 9.41C72.0796 9.41 71.8456 9.554 71.6896 9.842C71.5456 10.118 71.4736 10.556 71.4736 11.156ZM74.0296 2.516L65.9836 14.036L63.9496 14L71.9776 2.516H74.0296Z" fill="#00EB6C"/>
</svg>
