<svg width="20" height="21" viewBox="0 0 20 21" fill="none" xmlns="http://www.w3.org/2000/svg">
<path d="M9.59957 15.5C10.0512 15.5 10.3824 15.1875 10.3824 14.7746V6.25335C10.3824 5.83482 10.0512 5.5 9.58753 5.5C9.28043 5.5 9.06366 5.62277 8.73247 5.91295L6.21548 8.09487C6.17935 8.12835 6.13118 8.14509 6.07699 8.14509H4.3729C3.48172 8.14509 3 8.60268 3 9.46763V11.5435C3 12.4085 3.48172 12.8661 4.3729 12.8661H6.07699C6.13118 12.8661 6.17333 12.8828 6.21548 12.9163L8.73247 15.115C9.03355 15.3828 9.28645 15.5 9.59957 15.5ZM14.9527 14.4788C15.2297 14.635 15.5669 14.5792 15.7596 14.317C16.5424 13.2902 17 11.9118 17 10.4944C17 9.07701 16.5484 7.69308 15.7596 6.67188C15.5669 6.4096 15.2297 6.34821 14.9527 6.51004C14.6637 6.67746 14.6215 7.01228 14.8383 7.30804C15.4766 8.17857 15.8439 9.31138 15.8439 10.4944C15.8439 11.6719 15.4705 12.8047 14.8383 13.6808C14.6275 13.9766 14.6637 14.3058 14.9527 14.4788ZM12.532 12.9833C12.791 13.1395 13.1282 13.0837 13.3148 12.8382C13.8026 12.2355 14.0916 11.3817 14.0916 10.4944C14.0916 9.60714 13.8026 8.75893 13.3148 8.15067C13.1282 7.90513 12.791 7.84933 12.532 8.01116C12.237 8.18973 12.1768 8.51897 12.4176 8.84263C12.7488 9.28348 12.9355 9.875 12.9355 10.4944C12.9355 11.1138 12.7428 11.6998 12.4176 12.1462C12.1828 12.4699 12.237 12.7991 12.532 12.9833Z" fill="#191D23"/>
</svg>
